<svg xmlns="http://www.w3.org/2000/svg" enable-background="new 0 0 512 512" viewBox="0 0 512 512"><path d="M316.007,0.993c-107.523,0-195,87.477-195,195c0,48.374,17.713,92.685,46.984,126.804l-24.691,24.691l-21.213-21.213
			c-5.852-5.854-15.357-5.858-21.213,0l-82.292,82.293c-23.448,23.446-23.452,61.401,0,84.852c23.446,23.448,61.401,23.452,84.852,0
			l82.293-82.292c5.854-5.852,5.858-15.357,0-21.213l-21.213-21.213l24.691-24.691c34.119,29.271,78.429,46.983,126.803,46.983
			c107.523,0,195-87.477,195-195S423.53,0.993,316.007,0.993z M82.22,472.206c-11.726,11.724-30.7,11.726-42.426,0
			c-11.725-11.725-11.725-30.699,0-42.426l71.686-71.687c14.507,14.507,26.51,26.51,42.427,42.427L82.22,472.206z M316.007,360.993
			c-90.981,0-165-74.019-165-165s74.019-165,165-165s165,74.019,165,165S406.988,360.993,316.007,360.993z"/><path d="M316.007,60.993c-74.439,0-135,60.561-135,135s60.561,135,135,135s135-60.561,135-135S390.446,60.993,316.007,60.993z
			 M316.007,300.993c-57.897,0-105-47.103-105-105s47.103-105,105-105s105,47.103,105,105S373.904,300.993,316.007,300.993z"/></svg>