<svg xmlns="http://www.w3.org/2000/svg" enable-background="new 0 0 512 512" viewBox="0 0 512 512"><path d="M432.43,335.376c-16.503-21.137-22.967-47.954-17.731-73.578c2.261-11.068,3.407-20.722,3.407-28.692
		c0-70.467-45.731-132.77-112.16-154.244C304.82,52.28,282.854,31,256,31c-27.079,0-48.851,21.528-49.945,47.851
		c-65.317,21.146-112.16,82.604-112.16,154.255c0,7.973,1.146,17.627,3.407,28.693c5.235,25.622-1.228,52.44-17.732,73.577
		c-8.189,10.489-12.517,23.08-12.517,36.413c0,32.649,26.562,59.211,59.21,59.211h70.586c4.777,28.339,29.475,50,59.151,50
		s54.374-21.661,59.15-50h70.587c32.648,0,59.21-26.562,59.21-59.211C444.947,358.456,440.619,345.865,432.43,335.376z M256,51
		c13.994,0,25.78,9.631,29.08,22.612c-18.513-3.362-38.581-3.555-58.156-0.011C230.228,60.625,242.011,51,256,51z M256,461
		c-18.604,0-34.283-12.767-38.734-30h77.469C290.283,448.233,274.604,461,256,461z M385.737,411c-56.957,0-210.359,0-259.474,0
		c-21.621,0-39.21-17.59-39.21-39.211c0-8.83,2.864-17.165,8.281-24.104c20.112-25.759,27.972-58.522,21.563-89.89
		c-1.992-9.752-3.002-18.059-3.002-24.689c0-64.134,43.201-120.561,105.057-137.219c24.083-6.484,50.017-6.484,74.096,0
		c61.856,16.658,105.058,73.085,105.058,137.219c0,6.629-1.011,14.936-3.003,24.689c-6.408,31.368,1.451,64.132,21.563,89.89
		c5.418,6.939,8.281,15.274,8.281,24.104C424.947,393.41,407.357,411,385.737,411z"/></svg>