<svg xmlns="http://www.w3.org/2000/svg" enable-background="new 0 0 1024 1024" viewBox="0 0 1024 1024"><path d="M938.583,449.602c5.27-5.753,5.478-14.669,0.216-20.671c-44.599-50.873-108.95-80.05-176.555-80.05l-106.449-0.001   c-7.778,0-14.199,5.735-15.311,13.203L527,362.084V119h-32v243.084l-111.254,0.001c-1.112-7.469-7.533-13.205-15.312-13.205   l-106.673,0.001c-67.604,0-131.955,29.177-176.555,80.05c-5.24,5.977-5.052,14.842,0.154,20.597   c-33.476,41.473-51.675,92.719-51.675,146.769c0,62.562,24.362,121.388,68.598,165.638   c44.241,44.254,103.058,68.626,165.616,68.626c50.098,0,98.07-15.667,138.732-45.429c1.935-1.416,4.384-2.132,6.895-2.132h196.84   c2.511,0,4.96,0.716,6.895,2.132c40.661,29.761,88.634,45.46,138.732,45.46c62.56,0,121.376-24.383,165.615-68.629   c44.236-44.244,68.599-103.072,68.599-165.634C990.208,542.305,972.027,491.07,938.583,449.602z M755.994,800.561   c-43.684,0-85.529-13.665-121.014-39.637c-7.14-5.226-15.65-7.923-24.613-7.923h-196.84c-8.963,0-17.474,2.698-24.613,7.923   c-35.485,25.974-77.331,39.67-121.014,39.67c-112.604,0-204.214-91.648-204.214-204.28c0-112.603,91.61-204.22,204.214-204.22   l488.094-0.008c112.604,0,204.214,91.62,204.214,204.238S868.598,800.561,755.994,800.561z"/><path d="M267.9 457.614c-76.47 0-138.682 62.212-138.682 138.682S191.431 734.978 267.9 734.978s138.682-62.212 138.682-138.682S344.37 457.614 267.9 457.614zM267.9 714.978c-65.441 0-118.682-53.24-118.682-118.682s53.24-118.682 118.682-118.682 118.682 53.241 118.682 118.682S333.342 714.978 267.9 714.978zM490.838 611.755c-3.653-3.653-9.63-3.653-13.283 0l-31.49 31.49c-3.653 3.653-3.653 9.63 0 13.283l1.683 1.683c3.653 3.653 9.63 3.653 13.283 0l31.49-31.49c3.653-3.653 3.653-9.63 0-13.283L490.838 611.755zM552.51 617.401c-3.653-3.653-9.63-3.653-13.283 0l-31.49 31.49c-3.653 3.653-3.653 9.63 0 13.283l1.683 1.683c3.653 3.653 9.63 3.653 13.283 0l31.49-31.49c3.653-3.653 3.653-9.63 0-13.283L552.51 617.401z"/><path d="M329.667 577H289v-40.919c0-4.648-4.088-8.081-8.736-8.081h-24.727c-4.648 0-8.537 3.433-8.537 8.081V577h-40.867c-4.648 0-8.133 3.837-8.133 8.485v24.727c0 4.648 3.485 8.788 8.133 8.788H247v40.615c0 4.648 3.889 8.385 8.537 8.385h24.727c4.648 0 8.736-3.736 8.736-8.385V619h40.667c4.648 0 8.333-4.14 8.333-8.788v-24.727C338 580.837 334.316 577 329.667 577zM755.994 428.013c-92.94 0-168.282 75.343-168.282 168.282s75.343 168.282 168.282 168.282 168.282-75.343 168.282-168.282S848.934 428.013 755.994 428.013zM646.484 624.287L646.484 624.287c-15.184-15.184-15.184-40.031 0-55.215l80.836-80.836c15.184-15.184 40.031-15.184 55.215 0v0c15.185 15.184 15.185 40.031 0 55.215l-80.836 80.836C686.515 639.471 661.668 639.471 646.484 624.287zM864.08 624.995l-80.836 80.836c-15.184 15.184-40.031 15.184-55.215 0v0c-15.184-15.184-15.184-40.031 0-55.215l80.836-80.836c15.184-15.184 40.031-15.184 55.215 0S879.264 609.811 864.08 624.995z"/><circle cx="674.257" cy="596.063" r="28.422"/><circle cx="752.604" cy="517.716" r="28.422"/><circle cx="755.781" cy="677.587" r="28.422"/><circle cx="834.128" cy="599.239" r="28.422"/></svg>